<svg xmlns="http://www.w3.org/2000/svg" width="800" height="800" viewBox="0 0 48 48"><defs><style>.a{fill:none;stroke-linecap:round;stroke-linejoin:round;
stroke: currentColor;} </style></defs><path d="M7.48 5.5a2 2 0 0 0-2 2v33a2 2 0 0 0 2 2h33.04a2 2 0 0 0 2-2v-33a2 2 0 0 0-2-2Z" class="a"/><path d="M8.5 26.736v-3.367a2.104 2.104 0 0 1 2.104-2.105h0a2.104 2.104 0 0 1 2.105 2.105v3.367" class="a"/><path d="M12.709 23.369a2.104 2.104 0 0 1 2.104-2.105h0a2.104 2.104 0 0 1 2.104 2.105v3.367M22.724 25.726a2.103 2.103 0 0 1-1.829 1.062h0a2.104 2.104 0 0 1-2.104-2.104v-1.368a2.104 2.104 0 0 1 2.104-2.104h0A2.104 2.104 0 0 1 23 23.316V24h-4.208M25 26.736v-3.367a2.104 2.104 0 0 1 2.105-2.105h0a2.104 2.104 0 0 1 2.104 2.105v3.367M29.21 23.369a2.104 2.104 0 0 1 2.104-2.105h0a2.104 2.104 0 0 1 2.104 2.105v3.367M39.224 25.726a2.104 2.104 0 0 1-1.828 1.062h0a2.104 2.104 0 0 1-2.105-2.104v-1.368a2.104 2.104 0 0 1 2.105-2.104h0a2.104 2.104 0 0 1 2.104 2.104V24h-4.209" class="a"/></svg>